<svg width="250" height="100" viewBox="0 0 250 100" fill="none" xmlns="http://www.w3.org/2000/svg">
<path d="M108.786 64C108.498 64 108.258 63.898 108.066 63.694L104.466 60.094C104.262 59.902 104.16 59.662 104.16 59.374V40.456C104.16 40.156 104.31 40.006 104.61 40.006H109.704C110.004 40.006 110.154 40.156 110.154 40.456V59.176H114.186V40.456C114.186 40.156 114.336 40.006 114.636 40.006H119.73C120.03 40.006 120.18 40.156 120.18 40.456V59.176H124.194V40.456C124.194 40.156 124.344 40.006 124.644 40.006H129.756C130.056 40.006 130.206 40.156 130.206 40.456V59.374C130.206 59.662 130.104 59.902 129.9 60.094L126.3 63.694C126.096 63.898 125.856 64 125.58 64H121.35C121.074 64 120.834 63.898 120.63 63.694L117.606 60.67H116.76L113.736 63.694C113.532 63.898 113.292 64 113.016 64H108.786ZM134.985 64C134.685 64 134.535 63.85 134.535 63.55V44.65C134.535 44.35 134.685 44.2 134.985 44.2H139.773C140.073 44.2 140.223 44.35 140.223 44.65V63.55C140.223 63.85 140.073 64 139.773 64H134.985ZM134.895 42.706C134.655 42.706 134.535 42.586 134.535 42.346V40.06C134.535 39.82 134.655 39.7 134.895 39.7H139.899C140.115 39.7 140.223 39.82 140.223 40.06V42.346C140.223 42.586 140.115 42.706 139.899 42.706H134.895ZM144.864 64C144.564 64 144.414 63.85 144.414 63.55V40.456C144.414 40.156 144.564 40.006 144.864 40.006H149.67C149.97 40.006 150.12 40.156 150.12 40.456V45.406L151.02 44.506C151.212 44.302 151.452 44.2 151.74 44.2H154.494C154.77 44.2 155.01 44.302 155.214 44.506L158.814 48.106C159.018 48.298 159.12 48.538 159.12 48.826V59.374C159.12 59.662 159.018 59.902 158.814 60.094L155.214 63.694C155.01 63.898 154.77 64 154.494 64H144.864ZM150.12 59.806H152.388C152.784 59.806 153.054 59.728 153.198 59.572C153.342 59.416 153.414 59.14 153.414 58.744V49.456C153.414 49.06 153.342 48.784 153.198 48.628C153.054 48.472 152.784 48.394 152.388 48.394H151.128C150.744 48.394 150.48 48.472 150.336 48.628C150.192 48.784 150.12 49.06 150.12 49.456V59.806ZM167.954 64C167.666 64 167.426 63.898 167.234 63.694L163.634 60.094C163.43 59.902 163.328 59.662 163.328 59.374V44.65C163.328 44.35 163.478 44.2 163.778 44.2H168.584C168.884 44.2 169.034 44.35 169.034 44.65V58.654C169.034 59.218 169.31 59.5 169.862 59.5H172.328V44.65C172.328 44.35 172.478 44.2 172.778 44.2H177.584C177.884 44.2 178.034 44.35 178.034 44.65V63.55C178.034 63.85 177.884 64 177.584 64H167.954ZM182.692 64C182.392 64 182.242 63.85 182.242 63.55V40.456C182.242 40.156 182.392 40.006 182.692 40.006H187.786C188.086 40.006 188.236 40.156 188.236 40.456V49.006H192.682V40.456C192.682 40.156 192.832 40.006 193.132 40.006H198.226C198.526 40.006 198.676 40.156 198.676 40.456V63.55C198.676 63.85 198.526 64 198.226 64H193.132C192.832 64 192.682 63.85 192.682 63.55V53.794H188.236V63.55C188.236 63.85 188.086 64 187.786 64H182.692ZM207.61 64C207.322 64 207.082 63.898 206.89 63.694L203.29 60.094C203.086 59.902 202.984 59.662 202.984 59.374V44.65C202.984 44.35 203.134 44.2 203.434 44.2H208.24C208.54 44.2 208.69 44.35 208.69 44.65V58.654C208.69 59.218 208.966 59.5 209.518 59.5H211.984V44.65C211.984 44.35 212.134 44.2 212.434 44.2H217.24C217.54 44.2 217.69 44.35 217.69 44.65V63.55C217.69 63.85 217.54 64 217.24 64H207.61ZM222.348 64C222.048 64 221.898 63.85 221.898 63.55V40.456C221.898 40.156 222.048 40.006 222.348 40.006H227.154C227.454 40.006 227.604 40.156 227.604 40.456V45.406L228.504 44.506C228.696 44.302 228.936 44.2 229.224 44.2H231.978C232.254 44.2 232.494 44.302 232.698 44.506L236.298 48.106C236.502 48.298 236.604 48.538 236.604 48.826V59.374C236.604 59.662 236.502 59.902 236.298 60.094L232.698 63.694C232.494 63.898 232.254 64 231.978 64H222.348ZM227.604 59.806H229.872C230.268 59.806 230.538 59.728 230.682 59.572C230.826 59.416 230.898 59.14 230.898 58.744V49.456C230.898 49.06 230.826 48.784 230.682 48.628C230.538 48.472 230.268 48.394 229.872 48.394H228.612C228.228 48.394 227.964 48.472 227.82 48.628C227.676 48.784 227.604 49.06 227.604 49.456V59.806Z" fill="black"/>
<path d="M12 20C12 14.4772 16.4772 10 22 10H82C87.5228 10 92 14.4772 92 20V80C92 85.5228 87.5228 90 82 90H22C16.4772 90 12 85.5228 12 80V20Z" fill="#FF9999"/>
<path d="M32.786 64C32.498 64 32.258 63.898 32.066 63.694L28.466 60.094C28.262 59.902 28.16 59.662 28.16 59.374V40.456C28.16 40.156 28.31 40.006 28.61 40.006H33.704C34.004 40.006 34.154 40.156 34.154 40.456V59.176H38.186V40.456C38.186 40.156 38.336 40.006 38.636 40.006H43.73C44.03 40.006 44.18 40.156 44.18 40.456V59.176H48.194V40.456C48.194 40.156 48.344 40.006 48.644 40.006H53.756C54.056 40.006 54.206 40.156 54.206 40.456V59.374C54.206 59.662 54.104 59.902 53.9 60.094L50.3 63.694C50.096 63.898 49.856 64 49.58 64H45.35C45.074 64 44.834 63.898 44.63 63.694L41.606 60.67H40.76L37.736 63.694C37.532 63.898 37.292 64 37.016 64H32.786ZM58.985 64C58.685 64 58.535 63.85 58.535 63.55V40.456C58.535 40.156 58.685 40.006 58.985 40.006H64.079C64.379 40.006 64.529 40.156 64.529 40.456V49.006H68.975V40.456C68.975 40.156 69.125 40.006 69.425 40.006H74.519C74.819 40.006 74.969 40.156 74.969 40.456V63.55C74.969 63.85 74.819 64 74.519 64H69.425C69.125 64 68.975 63.85 68.975 63.55V53.794H64.529V63.55C64.529 63.85 64.379 64 64.079 64H58.985Z" fill="black"/>
</svg>
